<?xml version="1.0" encoding="UTF-8" standalone="no"?>
<svg
   xmlns:dc="http://purl.org/dc/elements/1.1/"
   xmlns:cc="http://creativecommons.org/ns#"
   xmlns:rdf="http://www.w3.org/1999/02/22-rdf-syntax-ns#"
   xmlns:svg="http://www.w3.org/2000/svg"
   xmlns="http://www.w3.org/2000/svg"
   xmlns:sodipodi="http://sodipodi.sourceforge.net/DTD/sodipodi-0.dtd"
   xmlns:inkscape="http://www.inkscape.org/namespaces/inkscape"
   version="1.1"
   id="svg2"
   xml:space="preserve"
   width="30.666668"
   height="30.666668"
   viewBox="0 0 30.666668 30.666668"
   sodipodi:docname="10.ai"><metadata
     id="metadata8"><rdf:RDF><cc:Work
         rdf:about=""><dc:format>image/svg+xml</dc:format><dc:type
           rdf:resource="http://purl.org/dc/dcmitype/StillImage" /></cc:Work></rdf:RDF></metadata><defs
     id="defs6" /><sodipodi:namedview
     pagecolor="#ffffff"
     bordercolor="#666666"
     borderopacity="1"
     objecttolerance="10"
     gridtolerance="10"
     guidetolerance="10"
     inkscape:pageopacity="0"
     inkscape:pageshadow="2"
     inkscape:window-width="640"
     inkscape:window-height="480"
     id="namedview4" /><g
     id="g10"
     inkscape:groupmode="layer"
     inkscape:label="10"
     transform="matrix(1.3333333,0,0,-1.3333333,0,30.666667)"><path
       d="M 0,0 H 23 V 3 H 0 Z"
       style="fill:#000000;fill-opacity:1;fill-rule:nonzero;stroke:none"
       id="path12" /><path
       d="M 0,3 H 3 V 23.001 H 0 Z"
       style="fill:#000000;fill-opacity:1;fill-rule:nonzero;stroke:none"
       id="path14" /><path
       d="m 20,3 h 3.001 V 23.001 H 20 Z"
       style="fill:#000000;fill-opacity:1;fill-rule:nonzero;stroke:none"
       id="path16" /><g
       id="g18"
       transform="matrix(0,1.0433922,0.7393632,0,0,0)"><g
         id="g20"
         transform="translate(9.0432,27.0576)"><path
           d="M 0,0 V -6.271 H 4.999 L 1.25,0 Z"
           style="fill:#000000;fill-opacity:1;fill-rule:nonzero;stroke:none"
           id="path22" /></g></g><g
       id="g24"
       transform="matrix(0,1.0433922,0.7393632,0,0,0)"><g
         id="g26"
         transform="translate(5.2929,27.0576)"><path
           d="M 0,0 3.75,-6.271 V 0 Z"
           style="fill:#000000;fill-opacity:1;fill-rule:nonzero;stroke:none"
           id="path28" /></g></g><g
       id="g30"
       transform="matrix(0,1.0433922,0.7393632,0,0,0)"><g
         id="g32"
         transform="translate(9.0432,10.3311)"><path
           d="M 0,0 V -6.273 H 1.25 L 4.999,0 Z"
           style="fill:#000000;fill-opacity:1;fill-rule:nonzero;stroke:none"
           id="path34" /></g></g><g
       id="g36"
       transform="matrix(0,1.0433922,0.7393632,0,0,0)"><g
         id="g38"
         transform="translate(5.2929,4.0581)"><path
           d="M 0,0 H 3.75 V 6.273 Z"
           style="fill:#000000;fill-opacity:1;fill-rule:nonzero;stroke:none"
           id="path40" /></g></g><g
       id="g42"
       transform="matrix(0,1.0433922,0.7393632,0,0,0)"><g
         id="g44"
         transform="translate(9.0432,10.3311)"><path
           d="M 0,0 H 4.999 V 8.364 Z"
           style="fill:#000000;fill-opacity:1;fill-rule:nonzero;stroke:none"
           id="path46" /></g></g><g
       id="g48"
       transform="matrix(0,1.0433922,0.7393632,0,0,0)"><g
         id="g50"
         transform="translate(14.0436,18.6939)"><path
           d="M 0,0 V -6.271 H 1.25 L 3.125,-3.136 1.25,0 Z"
           style="fill:#000000;fill-opacity:1;fill-rule:nonzero;stroke:none"
           id="path52" /></g></g><g
       id="g54"
       transform="matrix(0,1.0433922,0.7393632,0,0,0)"><g
         id="g56"
         transform="translate(9.0432,20.7855)"><path
           d="M 0,0 4.999,-8.364 V 0 Z"
           style="fill:#000000;fill-opacity:1;fill-rule:nonzero;stroke:none"
           id="path58" /></g></g><g
       id="g60"
       transform="matrix(0,1.0433922,0.7393632,0,0,0)"><g
         id="g62"
         transform="translate(14.0436,12.4227)"><path
           d="M 0,0 V -2.092 L 1.25,0 Z"
           style="fill:#000000;fill-opacity:1;fill-rule:nonzero;stroke:none"
           id="path64" /></g></g><g
       id="g66"
       transform="matrix(0,1.0433922,0.7393632,0,0,0)"><g
         id="g68"
         transform="translate(14.0436,18.6948)"><path
           d="M 0,0 H 1.25 L 0,2.092 Z"
           style="fill:#000000;fill-opacity:1;fill-rule:nonzero;stroke:none"
           id="path70" /></g></g><path
       d="m 0,20 h 23 v 3.001 H 0 Z"
       style="fill:#000000;fill-opacity:1;fill-rule:nonzero;stroke:none"
       id="path72" /></g></svg>
