<?xml version="1.0" encoding="UTF-8" standalone="no"?>
<svg
   xmlns:dc="http://purl.org/dc/elements/1.1/"
   xmlns:cc="http://creativecommons.org/ns#"
   xmlns:rdf="http://www.w3.org/1999/02/22-rdf-syntax-ns#"
   xmlns:svg="http://www.w3.org/2000/svg"
   xmlns="http://www.w3.org/2000/svg"
   viewBox="0 0 30.666668 30.666668"
   height="30.666668"
   width="30.666668"
   xml:space="preserve"
   id="svg2"
   version="1.1"><metadata
     id="metadata8"><rdf:RDF><cc:Work
         rdf:about=""><dc:format>image/svg+xml</dc:format><dc:type
           rdf:resource="http://purl.org/dc/dcmitype/StillImage" /></cc:Work></rdf:RDF></metadata><defs
     id="defs6" /><g
     transform="matrix(1.3333333,0,0,-1.3333333,0,30.666667)"
     id="g10"><path
       id="path12"
       style="fill:#000000;fill-opacity:1;fill-rule:nonzero;stroke:none"
       d="M 0,0 H 23 V 3 H 0 Z" /><path
       id="path14"
       style="fill:#000000;fill-opacity:1;fill-rule:nonzero;stroke:none"
       d="M 0,3 H 3 V 23.001 H 0 Z" /><path
       id="path16"
       style="fill:#000000;fill-opacity:1;fill-rule:nonzero;stroke:none"
       d="m 20,3 h 3.001 V 23.001 H 20 Z" /><g
       transform="scale(-1.0433922,0.7606963)"
       id="g18"><g
         transform="translate(-12.5244,26.2845)"
         id="g20"><path
           id="path22"
           style="fill:#000000;fill-opacity:1;fill-rule:nonzero;stroke:none"
           d="M 0,0 V -6.272 H 4.999 L 1.25,0 Z" /></g></g><g
       transform="scale(-1.0433922,0.7606963)"
       id="g24"><g
         transform="translate(-16.2747,26.2845)"
         id="g26"><path
           id="path28"
           style="fill:#000000;fill-opacity:1;fill-rule:nonzero;stroke:none"
           d="M 0,0 3.75,-6.272 V 0 Z" /></g></g><g
       transform="scale(-1.0433922,0.7606963)"
       id="g30"><g
         transform="translate(-12.5244,9.5571)"
         id="g32"><path
           id="path34"
           style="fill:#000000;fill-opacity:1;fill-rule:nonzero;stroke:none"
           d="M 0,0 V -6.273 H 1.25 L 4.999,0 Z" /></g></g><g
       transform="scale(-1.0433922,0.7606963)"
       id="g36"><g
         transform="translate(-16.2747,3.2841)"
         id="g38"><path
           id="path40"
           style="fill:#000000;fill-opacity:1;fill-rule:nonzero;stroke:none"
           d="M 0,0 H 3.75 V 6.273 Z" /></g></g><g
       transform="scale(-1.0433922,0.7606963)"
       id="g42"><g
         transform="translate(-12.5244,9.5571)"
         id="g44"><path
           id="path46"
           style="fill:#000000;fill-opacity:1;fill-rule:nonzero;stroke:none"
           d="M 0,0 H 5 V 8.364 Z" /></g></g><g
       transform="scale(-1.0433922,0.7606963)"
       id="g48"><g
         transform="translate(-7.524,17.9208)"
         id="g50"><path
           id="path52"
           style="fill:#000000;fill-opacity:1;fill-rule:nonzero;stroke:none"
           d="M 0,0 V -6.272 H 1.25 L 3.125,-3.137 1.25,0 Z" /></g></g><g
       transform="scale(-1.0433922,0.7606963)"
       id="g54"><g
         transform="translate(-12.5244,20.0115)"
         id="g56"><path
           id="path58"
           style="fill:#000000;fill-opacity:1;fill-rule:nonzero;stroke:none"
           d="M 0,0 5,-8.364 V 0 Z" /></g></g><g
       transform="scale(-1.0433922,0.7606963)"
       id="g60"><g
         transform="translate(-7.524,11.6487)"
         id="g62"><path
           id="path64"
           style="fill:#000000;fill-opacity:1;fill-rule:nonzero;stroke:none"
           d="M 0,0 V -2.092 L 1.25,0 Z" /></g></g><g
       transform="scale(-1.0433922,0.7606963)"
       id="g66"><g
         transform="translate(-7.524,17.9208)"
         id="g68"><path
           id="path70"
           style="fill:#000000;fill-opacity:1;fill-rule:nonzero;stroke:none"
           d="M 0,0 H 1.25 L 0,2.092 Z" /></g></g><path
       id="path72"
       style="fill:#000000;fill-opacity:1;fill-rule:nonzero;stroke:none"
       d="m 0,20 h 23 v 3.001 H 0 Z" /></g></svg>