<?xml version="1.0" encoding="UTF-8" standalone="no"?>
<svg
   xmlns:dc="http://purl.org/dc/elements/1.1/"
   xmlns:cc="http://creativecommons.org/ns#"
   xmlns:rdf="http://www.w3.org/1999/02/22-rdf-syntax-ns#"
   xmlns:svg="http://www.w3.org/2000/svg"
   xmlns="http://www.w3.org/2000/svg"
   viewBox="0 0 30.666668 30.666668"
   height="30.666668"
   width="30.666668"
   xml:space="preserve"
   id="svg2"
   version="1.1"><metadata
     id="metadata8"><rdf:RDF><cc:Work
         rdf:about=""><dc:format>image/svg+xml</dc:format><dc:type
           rdf:resource="http://purl.org/dc/dcmitype/StillImage" /></cc:Work></rdf:RDF></metadata><defs
     id="defs6" /><g
     transform="matrix(1.3333333,0,0,-1.3333333,0,30.666667)"
     id="g10"><g
       transform="translate(10.9998,6.2721)"
       id="g12"><path
         id="path14"
         style="fill:#000000;fill-opacity:1;fill-rule:nonzero;stroke:none"
         d="M 0,0 V -6.272 H 1.25 L 5,0 Z" /></g><g
       transform="translate(10.9998,6.2721)"
       id="g16"><path
         id="path18"
         style="fill:#000000;fill-opacity:1;fill-rule:nonzero;stroke:none"
         d="M 0,0 -3.75,-6.272 H 0 Z" /></g><g
       transform="translate(10.9998,23.0004)"
       id="g20"><path
         id="path22"
         style="fill:#000000;fill-opacity:1;fill-rule:nonzero;stroke:none"
         d="M 0,0 V -6.273 H 5 L 1.25,0 Z" /></g><g
       transform="translate(7.25,23.0004)"
       id="g24"><path
         id="path26"
         style="fill:#000000;fill-opacity:1;fill-rule:nonzero;stroke:none"
         d="M 0,0 3.75,-6.273 V 0 Z" /></g><g
       transform="translate(11,16.7271)"
       id="g28"><path
         id="path30"
         style="fill:#000000;fill-opacity:1;fill-rule:nonzero;stroke:none"
         d="M 0,0 5,-8.364 V 0 Z" /></g><g
       transform="translate(16.0002,14.6358)"
       id="g32"><path
         id="path34"
         style="fill:#000000;fill-opacity:1;fill-rule:nonzero;stroke:none"
         d="M 0,0 V -6.272 H 1.25 L 3.125,-3.136 1.25,0 Z" /></g><g
       transform="translate(11,6.2725)"
       id="g36"><path
         id="path38"
         style="fill:#000000;fill-opacity:1;fill-rule:nonzero;stroke:none"
         d="M 0,0 5,8.364 V 0 Z" /></g><g
       transform="translate(16.0002,16.7274)"
       id="g40"><path
         id="path42"
         style="fill:#000000;fill-opacity:1;fill-rule:nonzero;stroke:none"
         d="M 0,0 V -2.092 H 1.25 Z" /></g><g
       transform="translate(16.0002,8.3637)"
       id="g44"><path
         id="path46"
         style="fill:#000000;fill-opacity:1;fill-rule:nonzero;stroke:none"
         d="M 0,0 V -2.092 L 1.25,0 Z" /></g><path
       id="path48"
       style="fill:#000000;fill-opacity:1;fill-rule:nonzero;stroke:none"
       d="M 9,5 H 7 v 13 h 2 z" /></g></svg>