<?xml version="1.0" encoding="UTF-8" standalone="no"?>
<svg
   xmlns:dc="http://purl.org/dc/elements/1.1/"
   xmlns:cc="http://creativecommons.org/ns#"
   xmlns:rdf="http://www.w3.org/1999/02/22-rdf-syntax-ns#"
   xmlns:svg="http://www.w3.org/2000/svg"
   xmlns="http://www.w3.org/2000/svg"
   viewBox="0 0 30.666668 30.666668"
   height="30.666668"
   width="30.666668"
   xml:space="preserve"
   id="svg2"
   version="1.1"><metadata
     id="metadata8"><rdf:RDF><cc:Work
         rdf:about=""><dc:format>image/svg+xml</dc:format><dc:type
           rdf:resource="http://purl.org/dc/dcmitype/StillImage" /></cc:Work></rdf:RDF></metadata><defs
     id="defs6" /><g
     transform="matrix(1.3333333,0,0,-1.3333333,0,30.666667)"
     id="g10"><path
       id="path12"
       style="fill:#000000;fill-opacity:1;fill-rule:nonzero;stroke:none"
       d="M 0,0 H 3 V 23 H 0 Z" /><path
       id="path14"
       style="fill:#000000;fill-opacity:1;fill-rule:nonzero;stroke:none"
       d="m 20,0 h 3.001 V 23 H 20 Z" /><g
       transform="matrix(0,-1.0433922,0.7393632,0,0,0)"
       id="g16"><g
         transform="translate(-12.0438,27.0576)"
         id="g18"><path
           id="path20"
           style="fill:#000000;fill-opacity:1;fill-rule:nonzero;stroke:none"
           d="M 0,0 V -6.271 H 4.999 L 1.25,0 Z" /></g></g><g
       transform="matrix(0,-1.0433922,0.7393632,0,0,0)"
       id="g22"><g
         transform="translate(-15.7941,27.0576)"
         id="g24"><path
           id="path26"
           style="fill:#000000;fill-opacity:1;fill-rule:nonzero;stroke:none"
           d="M 0,0 3.75,-6.271 V 0 Z" /></g></g><g
       transform="matrix(0,-1.0433922,0.7393632,0,0,0)"
       id="g28"><g
         transform="translate(-12.0438,10.3311)"
         id="g30"><path
           id="path32"
           style="fill:#000000;fill-opacity:1;fill-rule:nonzero;stroke:none"
           d="M 0,0 V -6.273 H 1.25 L 4.999,0 Z" /></g></g><g
       transform="matrix(0,-1.0433922,0.7393632,0,0,0)"
       id="g34"><g
         transform="translate(-15.7941,4.0581)"
         id="g36"><path
           id="path38"
           style="fill:#000000;fill-opacity:1;fill-rule:nonzero;stroke:none"
           d="M 0,0 H 3.75 V 6.273 Z" /></g></g><g
       transform="matrix(0,-1.0433922,0.7393632,0,0,0)"
       id="g40"><g
         transform="translate(-12.0438,10.3311)"
         id="g42"><path
           id="path44"
           style="fill:#000000;fill-opacity:1;fill-rule:nonzero;stroke:none"
           d="M 0,0 H 4.999 V 8.364 Z" /></g></g><g
       transform="matrix(0,-1.0433922,0.7393632,0,0,0)"
       id="g46"><g
         transform="translate(-7.0434,18.6939)"
         id="g48"><path
           id="path50"
           style="fill:#000000;fill-opacity:1;fill-rule:nonzero;stroke:none"
           d="M 0,0 V -6.271 H 1.25 L 3.125,-3.136 1.25,0 Z" /></g></g><g
       transform="matrix(0,-1.0433922,0.7393632,0,0,0)"
       id="g52"><g
         transform="translate(-12.0438,20.7855)"
         id="g54"><path
           id="path56"
           style="fill:#000000;fill-opacity:1;fill-rule:nonzero;stroke:none"
           d="M 0,0 4.999,-8.364 V 0 Z" /></g></g><g
       transform="matrix(0,-1.0433922,0.7393632,0,0,0)"
       id="g58"><g
         transform="translate(-7.0434,12.4227)"
         id="g60"><path
           id="path62"
           style="fill:#000000;fill-opacity:1;fill-rule:nonzero;stroke:none"
           d="M 0,0 V -2.092 L 1.25,0 Z" /></g></g><g
       transform="matrix(0,-1.0433922,0.7393632,0,0,0)"
       id="g64"><g
         transform="translate(-7.0434,18.6948)"
         id="g66"><path
           id="path68"
           style="fill:#000000;fill-opacity:1;fill-rule:nonzero;stroke:none"
           d="M 0,0 H 1.25 L 0,2.092 Z" /></g></g><path
       id="path70"
       style="fill:#000000;fill-opacity:1;fill-rule:nonzero;stroke:none"
       d="m 0,20 h 23 v 3.001 H 0 Z" /></g></svg>