<?xml version="1.0" encoding="UTF-8" standalone="no"?>
<svg
   xmlns:dc="http://purl.org/dc/elements/1.1/"
   xmlns:cc="http://creativecommons.org/ns#"
   xmlns:rdf="http://www.w3.org/1999/02/22-rdf-syntax-ns#"
   xmlns:svg="http://www.w3.org/2000/svg"
   xmlns="http://www.w3.org/2000/svg"
   xmlns:sodipodi="http://sodipodi.sourceforge.net/DTD/sodipodi-0.dtd"
   xmlns:inkscape="http://www.inkscape.org/namespaces/inkscape"
   version="1.1"
   id="svg2"
   xml:space="preserve"
   width="30.666668"
   height="30.666668"
   viewBox="0 0 30.666668 30.666668"
   sodipodi:docname="5.ai"><metadata
     id="metadata8"><rdf:RDF><cc:Work
         rdf:about=""><dc:format>image/svg+xml</dc:format><dc:type
           rdf:resource="http://purl.org/dc/dcmitype/StillImage" /></cc:Work></rdf:RDF></metadata><defs
     id="defs6" /><sodipodi:namedview
     pagecolor="#ffffff"
     bordercolor="#666666"
     borderopacity="1"
     objecttolerance="10"
     gridtolerance="10"
     guidetolerance="10"
     inkscape:pageopacity="0"
     inkscape:pageshadow="2"
     inkscape:window-width="640"
     inkscape:window-height="480"
     id="namedview4" /><g
     id="g10"
     inkscape:groupmode="layer"
     inkscape:label="5"
     transform="matrix(1.3333333,0,0,-1.3333333,0,30.666667)"><g
       id="g12"
       transform="translate(1.9998,3.9996)"><path
         d="M 0,0 V -4 L 2,0 Z"
         style="fill:#000000;fill-opacity:1;fill-rule:nonzero;stroke:none"
         id="path14" /></g><path
       d="M 0,0 H 2 V 4 Z"
       style="fill:#000000;fill-opacity:1;fill-rule:nonzero;stroke:none"
       id="path16" /><g
       id="g18"
       transform="translate(6,8)"><path
         d="M 0,0 -2,-4 V 0 Z"
         style="fill:#000000;fill-opacity:1;fill-rule:nonzero;stroke:none"
         id="path20" /></g><g
       id="g22"
       transform="translate(2,4)"><path
         d="M 0,0 2,4 V 0 Z"
         style="fill:#000000;fill-opacity:1;fill-rule:nonzero;stroke:none"
         id="path24" /></g><g
       id="g26"
       transform="translate(8,12)"><path
         d="M 0,0 -2,-4 V 0 Z"
         style="fill:#000000;fill-opacity:1;fill-rule:nonzero;stroke:none"
         id="path28" /></g><g
       id="g30"
       transform="translate(4,8)"><path
         d="M 0,0 2,4 V 0 Z"
         style="fill:#000000;fill-opacity:1;fill-rule:nonzero;stroke:none"
         id="path32" /></g><g
       id="g34"
       transform="translate(10,16)"><path
         d="M 0,0 -2,-4 V 0 Z"
         style="fill:#000000;fill-opacity:1;fill-rule:nonzero;stroke:none"
         id="path36" /></g><g
       id="g38"
       transform="translate(6,12)"><path
         d="M 0,0 2,4 V 0 Z"
         style="fill:#000000;fill-opacity:1;fill-rule:nonzero;stroke:none"
         id="path40" /></g><g
       id="g42"
       transform="translate(12,20)"><path
         d="M 0,0 -2,-4 V 0 Z"
         style="fill:#000000;fill-opacity:1;fill-rule:nonzero;stroke:none"
         id="path44" /></g><g
       id="g46"
       transform="translate(8,16)"><path
         d="M 0,0 2,4 V 0 Z"
         style="fill:#000000;fill-opacity:1;fill-rule:nonzero;stroke:none"
         id="path48" /></g><g
       id="g50"
       transform="translate(18.9999,3.9996)"><path
         d="M 0,0 2,-4 V 0 Z"
         style="fill:#000000;fill-opacity:1;fill-rule:nonzero;stroke:none"
         id="path52" /></g><g
       id="g54"
       transform="translate(20.9997)"><path
         d="M 0,0 H 2.001 L 0,4 Z"
         style="fill:#000000;fill-opacity:1;fill-rule:nonzero;stroke:none"
         id="path56" /></g><g
       id="g58"
       transform="translate(17,8)"><path
         d="M 0,0 2,-4 V 0 Z"
         style="fill:#000000;fill-opacity:1;fill-rule:nonzero;stroke:none"
         id="path60" /></g><g
       id="g62"
       transform="translate(21,4)"><path
         d="M 0,0 -2,4 V 0 Z"
         style="fill:#000000;fill-opacity:1;fill-rule:nonzero;stroke:none"
         id="path64" /></g><g
       id="g66"
       transform="translate(15,12)"><path
         d="M 0,0 2,-4 V 0 Z"
         style="fill:#000000;fill-opacity:1;fill-rule:nonzero;stroke:none"
         id="path68" /></g><g
       id="g70"
       transform="translate(19,8)"><path
         d="M 0,0 -2,4 V 0 Z"
         style="fill:#000000;fill-opacity:1;fill-rule:nonzero;stroke:none"
         id="path72" /></g><g
       id="g74"
       transform="translate(13,16)"><path
         d="M 0,0 2,-4 V 0 Z"
         style="fill:#000000;fill-opacity:1;fill-rule:nonzero;stroke:none"
         id="path76" /></g><g
       id="g78"
       transform="translate(17,12)"><path
         d="M 0,0 -2,4 V 0 Z"
         style="fill:#000000;fill-opacity:1;fill-rule:nonzero;stroke:none"
         id="path80" /></g><g
       id="g82"
       transform="translate(11,20)"><path
         d="M 0,0 2,-4 V 0 Z"
         style="fill:#000000;fill-opacity:1;fill-rule:nonzero;stroke:none"
         id="path84" /></g><g
       id="g86"
       transform="translate(15,16)"><path
         d="M 0,0 -2,4 V 0 Z"
         style="fill:#000000;fill-opacity:1;fill-rule:nonzero;stroke:none"
         id="path88" /></g></g></svg>
